<svg height="45px" viewBox="0 0 1000 400" fill="none" xmlns="http://www.w3.org/2000/svg"><title>Heygo.com</title><path d="M108.5 72.3C85.1 72.3 62.7 86.4 52 108.5V0H0V255.6H52V156.4C52 134 67.9 117.8 88.5 117.8C109.1 117.8 121.2 132.6 121.2 154.3V255.6H172.9V143.6C172.9 102.3 146 72.3 108.5 72.3Z" fill="#001452"></path><path d="M306.4 222.8C277.4 222.8 255.4 206.7 251.6 181.9L383.5 182.2C383.8 177.8 384.2 171.2 384.2 166.7C384.2 110.6 348.7 72.3 293.3 72.3C237.9 72.3 198.2 110.9 198.2 166C198.2 221.1 242 262.4 301.5 262.4C340.1 262.4 374.9 245.2 388 221.8L356.6 199.4C348.4 213.2 328.7 222.8 306.4 222.8ZM292.2 111.9C314.3 111.9 328.7 128.5 331.8 150.9H251.6C255.7 127.4 270.2 111.9 292.2 111.9Z" fill="#001452"></path><path d="M902.2 262.4C960.4 262.4 1000 223.9 1000 167.4C1000 110.9 960.4 72.3 902.2 72.3C844 72.3 804.4 110.9 804.4 167.4C804.4 223.9 844 262.4 902.2 262.4ZM902.2 117.8C929.4 117.8 948.3 138.5 948.3 167.4C948.3 196.3 929.4 217 902.2 217C875 217 856 196.3 856 167.4C856 138.5 874.6 117.8 902.2 117.8Z" fill="#001452"></path><path d="M491.2 212L438.3 79.2H385.4L458.8 255.4H470.2L426.5 351.7H478.2L598.1 79.2H546.3L491.2 212Z" fill="#001452"></path><path d="M849.9 351.4C786.8 376.2 729.9 362.2 729.9 362.2L721.8 388.5C721.8 388.5 805.1 417.2 882.9 383.8C957.8 351.7 983.5 310.2 983.5 310.2L939.7 277C939.7 277 907.4 328.8 849.9 351.4Z" fill="#001452"></path><path d="M727.9 275.1L693.2 275.4H691.8C675.8 275.4 669.2 273.8 663.6 267.6C658 261.4 657.2 248.7 664.7 240.6C672.2 232.5 687.1 233.3 690.3 233.3H690.9C711.5 233.2 726.6 228.6 737.9 222.7C751.5 215.5 761.867 205.8 769 193.6C776.23 181.266 779.964 167.196 779.8 152.9C779.8 139.2 776.4 125.3 770.8 115.3C766.855 108.079 761.831 101.503 755.9 95.7999C755.9 95.7999 769.4 91.1999 780.1 82.8999C792.9 72.9999 800.2 61.1999 801.6 47.7999L744 43.3999C744 68.9999 722 74.2999 716.2 75.2999C707.55 73.2597 698.688 72.2526 689.8 72.2999C670.8 72.2999 654.5 75.8999 641.1 83.0999C627.7 90.2999 617.3 99.8999 610 112.2C602.662 124.498 598.856 138.58 599 152.9C599 190.8 621.9 209.4 627.3 213.2C612.1 231 609.6 247.3 609.6 247.3C603.3 277 621.8 305.9 654.9 317C664.7 320 675.2 320.5 686.9 320.5H779.9C779.9 305.9 774.9 275.1 727.9 275.1ZM649.1 153.3C649.1 141.7 652.9 132.7 660.3 126.5C667.7 120.3 677.6 117.1 689.8 117.1C702 117.1 711.1 120.2 718.7 126.5C726.3 132.8 730.1 141.7 730.1 153.3C730.1 164.9 726.3 173.9 718.7 180.2C711.1 186.5 701.5 189.6 689.8 189.6C678.1 189.6 667.8 186.4 660.3 180.2C652.8 174 649.1 164.9 649.1 153.3Z" fill="#001452"></path></svg>